<?xml version="1.0" standalone="no"?>
<!DOCTYPE svg PUBLIC "-//W3C//DTD SVG 20010904//EN"
 "http://www.w3.org/TR/2001/REC-SVG-20010904/DTD/svg10.dtd">
<svg version="1.0" xmlns="http://www.w3.org/2000/svg"
 width="1024.000000pt" height="1024.000000pt" viewBox="0 0 1024.000000 1024.000000"
 preserveAspectRatio="xMidYMid meet">

<g transform="translate(0.000000,1024.000000) scale(0.100000,-0.100000)"
fill="#2196F3" stroke="none">
<path d="M4860 8885 c-281 -50 -535 -182 -733 -382 -192 -194 -288 -379 -348
-673 -18 -90 -20 -127 -16 -260 6 -166 21 -244 77 -405 142 -406 501 -732 922
-836 79 -20 119 -23 268 -23 192 0 269 11 440 66 260 83 503 265 652 488 171
254 236 483 225 785 -9 226 -37 344 -129 530 -70 142 -127 222 -231 329 -140
142 -247 216 -424 291 -222 95 -483 129 -703 90z m122 -157 c13 -11 18 -54 27
-242 l11 -228 -25 -19 c-27 -22 -45 -74 -45 -131 0 -30 -4 -38 -22 -43 -86
-23 -107 -33 -154 -80 -60 -60 -84 -120 -84 -214 0 -85 31 -152 95 -209 59
-52 131 -79 256 -97 107 -15 131 -24 155 -60 40 -61 -22 -144 -116 -153 -99
-9 -136 3 -211 74 -76 71 -101 78 -156 44 -59 -36 -56 -111 8 -183 43 -50 134
-101 197 -112 l39 -6 5 -75 c4 -59 10 -79 27 -98 27 -29 70 -37 110 -20 39 17
52 43 55 116 l2 61 69 28 c53 22 82 41 121 83 60 64 84 123 84 210 0 76 -24
129 -86 196 -56 60 -109 82 -254 104 -131 21 -166 32 -185 59 -18 25 -19 67
-4 101 21 44 120 73 204 57 40 -7 56 -18 95 -60 42 -46 51 -51 89 -51 85 0
130 51 110 124 -20 71 -118 151 -201 162 l-46 6 -4 74 c-3 40 -11 80 -18 89
-10 12 -11 41 -2 148 7 72 15 176 18 230 8 121 13 126 118 107 94 -17 254 -71
324 -111 126 -71 287 -215 384 -343 65 -86 128 -206 128 -242 0 -43 23 -125
32 -112 5 8 8 0 8 -22 0 -19 2 -44 4 -55 2 -11 1 -14 -1 -7 -14 39 -21 -6 -22
-140 -3 -286 -52 -455 -199 -678 -136 -206 -386 -393 -577 -432 -53 -10 -75
-28 -36 -28 11 0 27 -3 36 -6 13 -5 14 -8 3 -15 -7 -5 -22 -8 -33 -8 l-20 0
20 9 c18 8 17 9 -7 9 -42 1 -43 -17 -1 -25 22 -4 49 -2 67 6 45 18 83 25 71
13 -21 -21 -180 -56 -250 -55 -38 0 -111 -4 -161 -10 -78 -10 -105 -9 -180 6
-204 41 -336 99 -478 210 -150 117 -259 252 -350 434 -125 249 -142 605 -42
898 82 243 272 452 541 599 159 87 411 149 457 113z m1203 -1135 c-11 -30 -22
3 -30 85 -5 58 -4 77 7 83 10 7 15 -8 22 -71 4 -44 5 -88 1 -97z m-475 -897
c0 -2 -7 -7 -16 -10 -8 -3 -12 -2 -9 4 6 10 25 14 25 6z m5 -26 c-3 -5 -12
-10 -18 -10 -7 0 -6 4 3 10 19 12 23 12 15 0z m-117 -9 c-2 -5 6 -16 16 -24
17 -13 17 -14 2 -20 -9 -4 -15 -3 -12 2 4 5 -3 7 -13 4 -11 -3 -28 0 -38 7
-16 10 -16 10 4 5 12 -3 24 -1 28 5 3 5 0 10 -7 10 -9 0 -9 3 2 10 19 12 21
12 18 1z m37 -1 c-3 -5 1 -10 10 -10 9 0 13 -5 10 -10 -5 -8 -11 -7 -21 1 -17
14 -18 29 -3 29 5 0 7 -4 4 -10z m-148 -116 c-3 -3 -12 -4 -19 -1 -8 3 -5 6 6
6 11 1 17 -2 13 -5z"/>
<path d="M4333 8358 c-11 -13 -29 -37 -41 -54 l-22 -32 23 -32 c33 -49 50 -57
81 -37 14 10 38 35 52 57 32 48 27 83 -16 105 -39 20 -53 19 -77 -7z"/>
<path d="M5258 6553 c7 -3 16 -2 19 1 4 3 -2 6 -13 5 -11 0 -14 -3 -6 -6z"/>
<path d="M5145 6540 c-3 -6 4 -10 16 -10 12 0 27 -7 33 -15 6 -9 29 -18 51
-20 40 -5 33 2 -20 20 -13 5 -15 9 -7 12 6 3 10 9 6 14 -7 12 -71 12 -79 -1z"/>
<path d="M3275 8029 c-383 -48 -695 -342 -760 -716 -13 -74 -15 -392 -15
-2449 0 -2284 1 -2367 19 -2461 74 -381 339 -655 703 -727 l123 -25 1755 -6
c1741 -6 1756 -6 1853 14 116 24 280 88 357 138 73 48 193 165 240 233 76 111
124 229 157 380 17 81 18 201 18 2480 l0 2395 -23 79 c-30 104 -109 257 -170
327 -159 185 -372 310 -576 338 -70 10 -516 16 -516 7 0 -2 9 -24 20 -50 28
-62 48 -173 56 -306 l7 -110 96 -1 c167 -1 264 -9 323 -24 182 -46 326 -186
407 -393 l26 -67 3 -1890 c2 -1155 -1 -1935 -7 -2005 -10 -124 -25 -168 -84
-262 -60 -93 -197 -188 -323 -224 -54 -16 -206 -17 -1836 -21 -1774 -5 -1778
-5 -1860 16 -196 49 -324 153 -389 316 l-24 60 -3 1965 c-2 1404 0 1983 8
2029 39 227 170 388 380 467 70 26 85 28 221 28 l147 1 5 150 c5 143 9 170 52
304 6 21 5 21 -157 20 -90 -1 -194 -5 -233 -10z m1892 -5625 c55 -41 68 -70
68 -147 0 -85 -22 -125 -85 -157 -70 -36 -136 -23 -191 37 -39 41 -49 66 -49
119 0 64 31 124 77 152 48 29 139 26 180 -4z"/>
<path d="M6825 6381 c-77 -34 -125 -123 -110 -201 15 -76 14 -81 -56 -139 -36
-31 -105 -89 -153 -130 l-87 -74 -51 18 c-93 33 -218 -1 -263 -72 -16 -25 -27
-32 -53 -33 -78 -1 -316 65 -318 88 -1 7 -2 23 -3 36 -2 36 -84 122 -135 141
-37 14 -53 15 -98 6 -75 -16 -111 -41 -138 -97 -29 -58 -31 -149 -6 -209 38
-90 122 -142 210 -131 69 9 111 36 127 81 9 24 18 35 29 32 8 -3 86 -24 173
-47 l157 -43 15 -50 c38 -128 151 -186 276 -142 66 24 109 62 137 123 22 48
24 64 19 131 l-5 77 82 61 c44 34 114 91 154 128 l73 67 52 -16 c76 -24 161
-2 214 56 62 67 70 193 17 269 -54 79 -171 110 -259 70z m155 -121 c28 -28 27
-98 -1 -129 -44 -47 -139 1 -139 70 0 66 93 106 140 59z m-1411 -371 c69 -24
71 -120 2 -148 -24 -11 -34 -10 -60 4 -56 28 -65 91 -21 135 23 23 35 24 79 9z
m764 -160 c54 -25 63 -104 16 -143 -84 -71 -188 11 -132 104 27 46 70 60 116
39z"/>
<path d="M4480 6276 c0 -2 7 -7 16 -10 8 -3 12 -2 9 4 -6 10 -25 14 -25 6z"/>
<path d="M3410 6171 c-5 -11 -10 -31 -10 -45 0 -19 -5 -26 -20 -26 -41 0 -99
-32 -123 -68 -73 -107 -17 -224 130 -273 33 -10 33 -11 33 -71 0 -60 0 -60
-26 -54 -15 4 -43 18 -63 32 -19 13 -41 24 -47 24 -20 0 -64 -41 -64 -59 0
-34 102 -111 148 -111 13 0 21 -11 28 -42 9 -41 10 -43 51 -46 46 -3 65 16 60
59 -2 18 6 24 44 35 39 12 52 23 78 62 75 117 43 216 -81 256 -80 25 -80 26
-72 84 6 44 10 52 28 52 11 0 30 -7 40 -15 11 -8 28 -15 38 -15 29 0 68 30 68
53 0 30 -72 93 -114 101 -31 6 -36 11 -36 34 0 16 -5 33 -12 40 -19 19 -66 15
-78 -7z m30 -220 c0 -22 3 -46 6 -55 8 -21 -26 -21 -65 -1 -34 17 -45 40 -31
65 12 22 25 28 63 29 25 1 27 -2 27 -38z m95 -231 c23 -26 13 -63 -21 -79 -30
-13 -44 -3 -44 34 0 63 30 84 65 45z"/>
<path d="M3910 6089 c-119 -48 -74 -151 46 -107 25 9 52 9 106 1 84 -12 114
-4 128 32 13 35 -1 60 -41 74 -39 14 -205 13 -239 0z"/>
<path d="M4516 6090 c-45 -14 -111 -86 -142 -154 -41 -89 -39 -166 8 -266 38
-83 107 -154 160 -165 105 -23 224 59 260 179 16 52 16 188 -1 244 -14 51 -79
126 -133 153 -39 20 -102 24 -152 9z m108 -121 c112 -66 114 -288 4 -342 -37
-18 -39 -18 -75 0 -21 10 -51 38 -68 61 -27 39 -30 51 -30 120 0 91 20 127 87
161 24 11 44 21 45 21 1 0 18 -9 37 -21z"/>
<path d="M3943 5893 c-47 -4 -52 -7 -62 -34 -10 -28 -8 -34 20 -61 23 -24 35
-29 57 -24 74 17 88 17 118 -3 79 -49 33 -161 -66 -161 -18 0 -59 15 -92 33
-50 27 -60 30 -68 17 -12 -18 -4 -66 16 -97 34 -53 156 -81 231 -52 97 36 158
170 119 262 -24 60 -133 128 -196 125 -14 -1 -48 -3 -77 -5z"/>
<path d="M3717 5622 c-37 -41 -9 -132 41 -132 47 0 79 80 52 131 -14 25 -71
26 -93 1z"/>
<path d="M4254 5595 c-14 -56 45 -118 92 -97 13 7 30 23 36 37 10 22 8 30 -9
53 -16 21 -30 28 -66 30 -43 3 -47 1 -53 -23z"/>
<path d="M6815 5480 c-22 -11 -74 -47 -115 -81 -41 -33 -109 -83 -150 -111
-147 -100 -246 -173 -325 -238 -44 -36 -134 -107 -200 -156 -224 -168 -380
-287 -425 -324 -52 -43 -289 -210 -307 -217 -10 -4 -13 86 -13 430 0 424 0
435 -21 461 -24 31 -57 34 -90 7 l-24 -19 -2 -911 -2 -911 -23 -41 -23 -41 37
-33 c20 -19 53 -38 75 -44 26 -7 342 -11 974 -11 878 0 938 1 957 17 28 24 36
63 18 88 -15 20 -70 23 -517 25 l-56 0 -2 591 c-2 409 -6 598 -13 615 -11 23
-52 43 -64 31 -3 -2 -5 -282 -4 -620 l0 -616 -122 -3 c-68 -2 -157 -2 -198 0
l-75 3 0 423 c0 441 -2 465 -43 481 -22 8 -29 -8 -37 -89 -6 -66 -7 -138 -1
-596 1 -96 0 -184 -2 -196 -4 -20 -12 -21 -161 -27 -87 -4 -173 -4 -193 -1
l-35 6 -6 271 c-4 180 -10 273 -18 277 -6 4 -10 10 -10 14 3 21 -2 26 -24 26
-30 0 -33 -16 -5 -23 11 -3 20 -13 20 -22 0 -9 -4 -14 -9 -11 -16 10 -20 -35
-27 -281 l-7 -241 29 -4 c16 -2 -40 -7 -125 -11 -109 -6 -157 -5 -165 3 -8 8
-11 131 -11 407 0 376 1 396 19 407 10 6 69 49 130 96 61 47 183 139 272 205
283 211 527 398 590 451 34 28 90 71 125 94 139 94 469 342 493 371 64 75 6
127 -89 79z m-252 -2000 c3 -13 0 -20 -9 -20 -8 0 -14 9 -14 20 0 11 4 20 9
20 5 0 11 -9 14 -20z m-13 -71 c0 -6 -6 -9 -14 -6 -8 3 -17 1 -20 -6 -2 -7 -5
-4 -5 6 -1 11 6 17 19 17 11 0 20 -5 20 -11z"/>
<path d="M4393 5125 c-128 -35 -211 -103 -268 -220 -79 -159 -71 -300 23 -439
56 -82 117 -127 210 -156 87 -27 209 -29 272 -4 174 69 293 270 278 468 -14
164 -137 301 -313 346 -91 23 -130 24 -202 5z m176 -253 c14 -10 27 -26 29
-35 4 -22 -42 -44 -60 -30 -29 23 -67 24 -88 3 -27 -27 -22 -41 16 -53 88 -26
117 -41 135 -71 36 -59 16 -119 -54 -161 -53 -30 -76 -31 -127 -5 -45 23 -71
55 -62 79 10 28 24 30 63 10 69 -35 125 -19 117 32 -2 18 -13 25 -53 34 -86
19 -126 52 -127 103 -3 93 132 153 211 94z"/>
<path d="M3385 5113 c-157 -57 -242 -158 -270 -321 -25 -142 12 -275 103 -373
154 -167 417 -185 575 -40 140 129 186 347 107 507 -46 94 -137 184 -215 213
-84 32 -231 39 -300 14z m223 -239 c45 -29 15 -88 -32 -62 -9 5 -33 8 -54 6
-32 -3 -37 -7 -40 -30 -3 -24 1 -28 53 -42 71 -21 114 -59 122 -109 5 -36 3
-41 -46 -87 -40 -40 -58 -50 -83 -50 -45 1 -112 48 -116 82 -4 33 18 41 62 23
50 -21 93 -19 106 4 16 30 2 50 -44 61 -68 18 -96 31 -116 58 -39 49 -16 117
52 151 47 24 94 22 136 -5z"/>
<path d="M6978 4393 c-2 -489 -1 -648 6 -888 2 -63 -1 -83 -13 -92 -14 -11
-14 -12 -1 -13 13 0 13 -1 0 -10 -11 -7 -2 -10 32 -10 41 0 48 3 53 23 3 12 4
354 3 760 -3 718 -4 739 -22 753 -11 8 -28 14 -38 14 -17 0 -18 -26 -20 -537z
m39 -695 c-2 -13 -4 -3 -4 22 0 25 2 35 4 23 2 -13 2 -33 0 -45z m4 -149 c-6
-28 -7 -45 -1 -47 17 -6 12 -62 -6 -62 -13 0 -15 10 -11 63 5 60 15 102 24 94
2 -3 -1 -24 -6 -48z m26 -126 c-3 -10 -5 -4 -5 12 0 17 2 24 5 18 2 -7 2 -21
0 -30z"/>
<path d="M3440 4019 c-194 -32 -330 -209 -330 -428 0 -239 179 -411 427 -411
194 0 354 151 395 370 22 119 -8 225 -90 324 -96 116 -248 170 -402 145z m230
-263 c0 -41 -22 -49 -112 -43 -88 6 -118 -2 -118 -32 0 -16 8 -18 76 -17 l75
1 40 -42 c34 -37 39 -48 39 -88 0 -38 -5 -52 -29 -76 -30 -30 -59 -37 -77 -19
-6 6 -22 6 -44 0 -59 -17 -96 -12 -130 16 -58 50 -22 94 46 58 32 -17 37 -17
62 -4 45 26 39 44 -24 65 -85 29 -104 47 -104 101 0 37 6 51 29 75 29 29 30
29 150 29 121 0 121 0 121 -24z"/>
<path d="M3580 3563 c0 -10 -3 -29 -6 -43 -5 -24 -5 -24 10 -6 18 22 21 52 6
61 -5 3 -10 -2 -10 -12z"/>
<path d="M4403 4020 c-135 -29 -239 -121 -303 -270 -20 -45 -24 -73 -25 -150
0 -116 18 -173 79 -251 86 -109 203 -164 351 -164 83 0 96 3 160 34 156 77
245 229 245 418 0 211 -165 376 -389 388 -42 2 -95 0 -118 -5z m221 -246 c17
-7 21 -41 7 -63 -10 -16 -88 -17 -168 -2 -54 10 -63 8 -63 -19 0 -21 8 -24
100 -40 76 -13 137 -49 146 -86 16 -64 -29 -126 -91 -126 -47 0 -53 18 -17 55
35 36 38 47 21 80 -11 19 -13 16 -26 -33 -7 -30 -21 -62 -29 -71 -42 -46 -122
-48 -163 -5 -45 48 -4 84 58 51 37 -19 71 -6 71 26 0 14 -14 27 -50 43 -75 35
-90 52 -90 103 0 33 6 50 25 68 23 24 30 25 139 25 63 0 121 -3 130 -6z"/>
</g>
</svg>
